<?xml version="1.0" encoding="UTF-8" standalone="no"?>
<svg
   xmlns:dc="http://purl.org/dc/elements/1.1/"
   xmlns:cc="http://creativecommons.org/ns#"
   xmlns:rdf="http://www.w3.org/1999/02/22-rdf-syntax-ns#"
   xmlns:svg="http://www.w3.org/2000/svg"
   xmlns="http://www.w3.org/2000/svg"
   viewBox="0 0 779.53375 1087.795"
   height="1087.795"
   width="779.53375"
   xml:space="preserve"
   version="1.1"
   id="svg2"><metadata
     id="metadata8"><rdf:RDF><cc:Work
         rdf:about=""><dc:format>image/svg+xml</dc:format><dc:type
           rdf:resource="http://purl.org/dc/dcmitype/StillImage" /><dc:title></dc:title></cc:Work></rdf:RDF></metadata><defs
     id="defs6"><clipPath
       id="clipPath16"
       clipPathUnits="userSpaceOnUse"><path
         id="path18"
         d="m 0,870.236 623.627,0 L 623.627,0 0,0 0,870.236 Z" /></clipPath><linearGradient
       id="linearGradient40"
       spreadMethod="pad"
       gradientTransform="matrix(265.95557,0,0,-265.95557,176.95215,377.58105)"
       gradientUnits="userSpaceOnUse"
       y2="0"
       x2="1"
       y1="0"
       x1="0"><stop
         id="stop42"
         offset="0"
         style="stop-opacity:1;stop-color:#9c45ff" /><stop
         id="stop44"
         offset="0.27606302"
         style="stop-opacity:1;stop-color:#5cc6ff" /><stop
         id="stop46"
         offset="0.509201"
         style="stop-opacity:1;stop-color:#5cc6ff" /><stop
         id="stop48"
         offset="0.74744823"
         style="stop-opacity:1;stop-color:#5cc6ff" /><stop
         id="stop50"
         offset="1"
         style="stop-opacity:1;stop-color:#9c45ff" /></linearGradient><clipPath
       id="clipPath58"
       clipPathUnits="userSpaceOnUse"><path
         id="path60"
         d="m 0,870.236 623.627,0 L 623.627,0 0,0 0,870.236 Z" /></clipPath><clipPath
       id="clipPath246"
       clipPathUnits="userSpaceOnUse"><path
         id="path248"
         d="m 0,870.236 623.627,0 L 623.627,0 0,0 0,870.236 Z" /></clipPath><clipPath
       id="clipPath270"
       clipPathUnits="userSpaceOnUse"><path
         id="path272"
         d="m 0,870.236 623.627,0 L 623.627,0 0,0 0,870.236 Z" /></clipPath></defs><circle
     r="15"
     cy="673.93365"
     cx="507.92078"
     id="pivot-left-hand"
     style="fill:#ff0000;fill-rule:evenodd;stroke:#000000;stroke-width:1px;stroke-linecap:butt;stroke-linejoin:miter;stroke-opacity:1" /><circle
     r="15"
     cy="670.96338"
     cx="269.30692"
     id="pivot-right-hand"
     style="fill:#ff0000;fill-rule:evenodd;stroke:#000000;stroke-width:1px;stroke-linecap:butt;stroke-linejoin:miter;stroke-opacity:1" /><circle
     r="15"
     cy="429.37918"
     cx="317.82181"
     id="pivot-right-ear"
     style="fill:#ff0000;fill-rule:evenodd;stroke:#000000;stroke-width:1px;stroke-linecap:butt;stroke-linejoin:miter;stroke-opacity:1" /><circle
     r="15"
     cy="428.3891"
     cx="461.38614"
     id="pivot-left-ear"
     style="fill:#ff0000;fill-rule:evenodd;stroke:#000000;stroke-width:1px;stroke-linecap:butt;stroke-linejoin:miter;stroke-opacity:1" /><g
     transform="matrix(1.25,0,0,-1.25,0,1087.795)"
     id="g10"><g
       id="g12"><g
         clip-path="url(#clipPath16)"
         id="g14"><g
           transform="translate(200.7061,343.6973)"
           id="g4350"><path
             id="right-hand"
             style="fill:#fdff3f;fill-opacity:1;fill-rule:nonzero;stroke:#6c007f;stroke-width:3;stroke-linecap:butt;stroke-linejoin:miter;stroke-miterlimit:10;stroke-dasharray:none;stroke-opacity:1"
             d="M 32.475247,-3.1683168 C 24.062247,-4.4053168 -35.572,-4.596 -50.639,9.223 c -6.407,5.872 -12.534,20.568 -20.549,14.616 -4.395,-3.263 8.825,-17.735 3.926,-21.82 -6.095,-5.082 -35.739,12.39 -39.214,4.236 -4.911,-11.521 19.331,-8.809 17.636,-18.024 -0.794,-4.308 -24.003,-0.31 -22.008,-9.621 1.568,-7.316 24.214,1.819 25.22,-3.248 3.251,-7.699 -19.029,-8.656 -14.96,-17.177 5.278,-11.05 50.064109,32.4871085 133.011089,18.784841" /></g><g
           transform="translate(421.1226,341.8379)"
           id="g4348"><path
             id="left-hand"
             style="fill:#fdff3f;fill-opacity:1;fill-rule:nonzero;stroke:#6c007f;stroke-width:3;stroke-linecap:butt;stroke-linejoin:miter;stroke-miterlimit:10;stroke-dasharray:none;stroke-opacity:1"
             d="M -28.514851,1.5841584 C -20.105851,0.34815842 35.567,-4.595 50.631,9.224 57.045,15.096 63.173,29.792 71.183,23.84 75.579,20.577 62.358,6.104 67.258,2.019 c 6.095,-5.082 35.743,12.39 39.214,4.236 4.906,-11.521 -19.332,-8.808 -17.641,-18.023 0.798,-4.308 24.007,-0.311 22.013,-9.622 -1.572,-7.316 -24.215,1.819 -25.22,-3.247 -3.256,-7.699 19.028,-8.657 14.959,-17.177 -5.273,-11.05 -23.925495,25.357396 -130.629851,21.953158" /></g></g></g><g
       id="g54"><g
         clip-path="url(#clipPath58)"
         id="g56"><g
           transform="translate(240.395,533.5342)"
           id="g4346"><path
             id="right-ear"
             style="fill:#1ffffa;fill-opacity:1;fill-rule:nonzero;stroke:#6a0783;stroke-width:3;stroke-miterlimit:10;stroke-dasharray:none;stroke-opacity:1"
             d="M 1.5841584,-0.79207921 C -76.029842,15.603921 -87.838,18.758 -111.634,35.313 c -31.191,21.701 -33.357,59.08 -41.946,86.27 -5.637,17.848 -20.117,18.622 -30.816,15.598 -13.871,-3.925 -13.871,-17.544 -13.871,-26.441 0,-28.794 19.527,-91.815 87.172,-108.721 30.749,-7.683 135.410465,-14.356396 156.022465,-13.199396 m 0,0.792079 L 0,0" /></g><g
           transform="translate(382.6938,533.5342)"
           id="g4344"><path
             id="left-ear"
             style="fill:#1ffffa;fill-opacity:1;fill-rule:nonzero;stroke:#6a0783;stroke-width:3;stroke-miterlimit:10;stroke-dasharray:none;stroke-opacity:1"
             d="M -24.554455,-1.5841584 C 53.059545,14.811842 87.843,18.758 111.634,35.313 c 31.195,21.701 33.357,59.08 41.95,86.27 5.633,17.848 20.114,18.622 30.813,15.598 13.867,-3.925 13.867,-17.544 13.867,-26.441 C 198.264,81.946 178.74,18.925 111.091,2.019 80.343,-5.664 -13.230356,-9.9611584 -33.838356,-8.8041584 Z" /></g><g
           id="g28"><g
             id="g30"><g
               id="g36"><g
                 id="g38"><path
                   id="path52"
                   style="fill:url(#linearGradient40);stroke:none"
                   d="m 310.553,556.967 c 0.175,-10e-4 0.35,-0.002 0.525,-0.004 l 0,0 c 0.175,0.002 0.35,0.003 0.524,0.004 l 0,0 -1.049,0 z m -98.597,-49.658 c -22.579,-29.687 -24.773,-62.933 -19.32,-96.451 l 0,0 c 6.096,-37.465 12.001,-60.157 7.504,-115.319 l 0,0 c -1.217,-14.888 -3.655,-47.306 -9.455,-58.977 l 0,0 c -19.069,-38.367 -18.487,-29.163 3.053,-34.937 l 0,0 c 2.781,-0.745 10.04,-2.84 12.777,-3.04 l 0,0 c 8.01,-0.574 9.183,-1.053 13.986,2.721 l 0,0 c 7.791,6.128 7.424,17.018 22.512,22.762 l 0,0 c 19.012,7.237 41.953,7.884 65.374,7.884 l 0,0 5.382,0 c 23.416,0 46.362,-0.647 65.383,-7.884 l 0,0 c 15.079,-5.744 14.711,-16.634 22.499,-22.762 l 0,0 c 4.802,-3.774 5.983,-3.295 13.994,-2.721 l 0,0 c 2.728,0.2 10.069,2.051 12.773,3.04 l 0,0 c 17.96,6.55 19.043,-4.885 4.255,35.438 l 0,0 c -4.488,12.237 -9.441,43.588 -10.662,58.476 l 0,0 c -4.491,55.162 1.412,77.854 7.508,115.319 l 0,0 c 5.449,33.518 3.264,66.764 -19.315,96.451 l 0,0 c -18.655,24.518 -57.784,49.25 -99.126,49.654 l 0,0 c -41.343,-0.404 -80.472,-25.136 -99.122,-49.654" /></g></g></g></g><g
           transform="translate(310.5532,556.9668)"
           id="g62"><path
             id="path64"
             style="fill:none;stroke:#6c007f;stroke-width:3;stroke-linecap:butt;stroke-linejoin:miter;stroke-miterlimit:10;stroke-dasharray:none;stroke-opacity:1"
             d="m 0,0 c 41.536,-0.199 80.917,-25.036 99.65,-49.657 22.579,-29.688 24.765,-62.934 19.316,-96.451 -6.096,-37.466 -11.999,-60.158 -7.508,-115.32 1.221,-14.887 6.174,-46.239 10.662,-58.476 14.788,-40.323 13.704,-28.887 -4.255,-35.438 -2.705,-0.989 -10.045,-2.84 -12.773,-3.04 -8.011,-0.574 -9.192,-1.053 -13.994,2.721 -7.787,6.128 -7.42,17.018 -22.499,22.763 -19.021,7.236 -41.967,7.882 -65.383,7.882 l -5.382,0 c -23.421,0 -46.362,-0.646 -65.375,-7.882 -15.087,-5.745 -14.72,-16.635 -22.511,-22.763 -4.803,-3.774 -5.976,-3.295 -13.986,-2.721 -2.737,0.2 -9.996,2.295 -12.777,3.04 -21.54,5.774 -22.123,-3.429 -3.053,34.938 5.8,11.67 8.238,44.089 9.455,58.976 4.496,55.162 -1.408,77.854 -7.504,115.32 -5.453,33.517 -3.259,66.763 19.32,96.451 C -79.868,-25.036 -40.486,-0.199 1.049,0 L 0,0 Z" /></g><g
           transform="translate(230.7236,489.6416)"
           id="g82"><path
             id="path84"
             style="fill:#fdff3f;fill-opacity:1;fill-rule:nonzero;stroke:#6c007f;stroke-width:3;stroke-linecap:butt;stroke-linejoin:miter;stroke-miterlimit:10;stroke-dasharray:none;stroke-opacity:1"
             d="M 0,0 C 0,9.442 -2.419,17.599 -12.424,17.599 -22.429,17.599 -24.848,9.442 -24.848,0" /></g><g
           transform="translate(266.3623,430.4482)"
           id="g86"><path
             id="path88"
             style="fill:#fdff3f;fill-opacity:1;fill-rule:nonzero;stroke:#6c007f;stroke-width:3;stroke-linecap:butt;stroke-linejoin:miter;stroke-miterlimit:10;stroke-dasharray:none;stroke-opacity:1"
             d="M 0,0 C 9.442,0 17.599,2.419 17.599,12.435 17.599,22.429 9.442,24.849 0,24.849" /></g><g
           transform="translate(252.4854,477.9399)"
           id="g90"><path
             id="path92"
             style="fill:#fdff3f;fill-opacity:1;fill-rule:nonzero;stroke:#6c007f;stroke-width:3;stroke-linecap:butt;stroke-linejoin:miter;stroke-miterlimit:10;stroke-dasharray:none;stroke-opacity:1"
             d="m 0,0 c 4.674,8.195 6.61,16.474 -2.086,21.443 -8.678,4.951 -14.824,-0.937 -19.498,-9.132" /></g><g
           transform="translate(265.9263,456.084)"
           id="g94"><path
             id="path96"
             style="fill:#fdff3f;fill-opacity:1;fill-rule:nonzero;stroke:#6c007f;stroke-width:3;stroke-linecap:butt;stroke-linejoin:miter;stroke-miterlimit:10;stroke-dasharray:none;stroke-opacity:1"
             d="m 0,0 c 8.181,4.726 14.041,10.876 9.034,19.559 -4.997,8.663 -13.267,6.675 -21.443,1.969" /></g><g
           transform="translate(206.0547,395.79)"
           id="g98"><path
             id="path100"
             style="fill:#fdff3f;fill-opacity:1;fill-rule:nonzero;stroke:#6c007f;stroke-width:3;stroke-linecap:butt;stroke-linejoin:miter;stroke-miterlimit:10;stroke-dasharray:none;stroke-opacity:1"
             d="m 0,0 c 0,-9.44 2.418,-17.599 12.423,-17.599 10.004,0 12.424,8.159 12.424,17.599" /></g><g
           transform="translate(170.4155,454.9126)"
           id="g102"><path
             id="path104"
             style="fill:#fdff3f;fill-opacity:1;fill-rule:nonzero;stroke:#6c007f;stroke-width:3;stroke-linecap:butt;stroke-linejoin:miter;stroke-miterlimit:10;stroke-dasharray:none;stroke-opacity:1"
             d="m 0,0 c -9.442,0 -17.6,-2.419 -17.6,-12.434 0,-9.995 8.158,-12.415 17.6,-12.415" /></g><g
           transform="translate(184.2925,407.417)"
           id="g106"><path
             id="path108"
             style="fill:#fdff3f;fill-opacity:1;fill-rule:nonzero;stroke:#6c007f;stroke-width:3;stroke-linecap:butt;stroke-linejoin:miter;stroke-miterlimit:10;stroke-dasharray:none;stroke-opacity:1"
             d="m 0,0 c -4.674,-8.194 -6.61,-16.474 2.085,-21.443 8.679,-4.951 14.825,0.938 19.498,9.131" /></g><g
           transform="translate(170.8516,429.2754)"
           id="g110"><path
             id="path112"
             style="fill:#fdff3f;fill-opacity:1;fill-rule:nonzero;stroke:#6c007f;stroke-width:3;stroke-linecap:butt;stroke-linejoin:miter;stroke-miterlimit:10;stroke-dasharray:none;stroke-opacity:1"
             d="m 0,0 c -8.181,-4.729 -14.041,-10.879 -9.034,-19.561 4.998,-8.664 13.267,-6.676 21.444,-1.969" /></g><g
           transform="translate(252.6162,408.1201)"
           id="g114"><path
             id="path116"
             style="fill:#fdff3f;fill-opacity:1;fill-rule:nonzero;stroke:#6c007f;stroke-width:3;stroke-linecap:butt;stroke-linejoin:miter;stroke-miterlimit:10;stroke-dasharray:none;stroke-opacity:1"
             d="m 0,0 c 4.674,-8.194 6.61,-16.474 -2.086,-21.442 -8.678,-4.952 -14.824,0.936 -19.498,9.131" /></g><g
           transform="translate(266.0576,429.9785)"
           id="g118"><path
             id="path120"
             style="fill:#fdff3f;fill-opacity:1;fill-rule:nonzero;stroke:#6c007f;stroke-width:3;stroke-linecap:butt;stroke-linejoin:miter;stroke-miterlimit:10;stroke-dasharray:none;stroke-opacity:1"
             d="M 0,0 C 8.18,-4.729 14.041,-10.879 9.034,-19.561 4.036,-28.225 -4.234,-26.236 -12.41,-21.53" /></g><g
           transform="translate(184.2925,478.0146)"
           id="g122"><path
             id="path124"
             style="fill:#fdff3f;fill-opacity:1;fill-rule:nonzero;stroke:#6c007f;stroke-width:3;stroke-linecap:butt;stroke-linejoin:miter;stroke-miterlimit:10;stroke-dasharray:none;stroke-opacity:1"
             d="m 0,0 c -4.674,8.195 -6.61,16.475 2.085,21.444 8.679,4.951 14.825,-0.938 19.498,-9.133" /></g><g
           transform="translate(170.8516,456.1587)"
           id="g126"><path
             id="path128"
             style="fill:#fdff3f;fill-opacity:1;fill-rule:nonzero;stroke:#6c007f;stroke-width:3;stroke-linecap:butt;stroke-linejoin:miter;stroke-miterlimit:10;stroke-dasharray:none;stroke-opacity:1"
             d="m 0,0 c -8.181,4.726 -14.041,10.876 -9.034,19.56 4.998,8.663 13.267,6.675 21.444,1.968" /></g><g
           transform="translate(266.2261,442.6943)"
           id="g130"><path
             id="path132"
             style="fill:#1ffffa;fill-opacity:1;fill-rule:nonzero;stroke:none"
             d="m 0,0 c 0,-26.473 -21.458,-47.926 -47.921,-47.926 -26.47,0 -47.928,21.453 -47.928,47.926 0,26.47 21.458,47.922 47.928,47.922 C -21.458,47.922 0,26.47 0,0" /></g><g
           transform="translate(266.2261,442.6943)"
           id="g134"><path
             id="right-eye"
             style="fill:none;stroke:#6c007f;stroke-width:3;stroke-linecap:butt;stroke-linejoin:miter;stroke-miterlimit:10;stroke-dasharray:none;stroke-opacity:1"
             d="m 0,0 c 0,-26.473 -21.458,-47.926 -47.921,-47.926 -26.47,0 -47.928,21.453 -47.928,47.926 0,26.47 21.458,47.922 47.928,47.922 C -21.458,47.922 0,26.47 0,0 Z" /></g><g
           transform="translate(415.2974,489.2852)"
           id="g138"><path
             id="path140"
             style="fill:#fdff3f;fill-opacity:1;fill-rule:nonzero;stroke:#6c007f;stroke-width:3;stroke-linecap:butt;stroke-linejoin:miter;stroke-miterlimit:10;stroke-dasharray:none;stroke-opacity:1"
             d="M 0,0 C 0,9.442 -2.42,17.599 -12.434,17.599 -22.429,17.599 -24.849,9.442 -24.849,0" /></g><g
           transform="translate(450.9263,430.0918)"
           id="g142"><path
             id="path144"
             style="fill:#fdff3f;fill-opacity:1;fill-rule:nonzero;stroke:#6c007f;stroke-width:3;stroke-linecap:butt;stroke-linejoin:miter;stroke-miterlimit:10;stroke-dasharray:none;stroke-opacity:1"
             d="M 0,0 C 9.451,0 17.608,2.42 17.608,12.434 17.608,22.429 9.451,24.848 0,24.848" /></g><g
           transform="translate(437.0493,477.5835)"
           id="g146"><path
             id="path148"
             style="fill:#fdff3f;fill-opacity:1;fill-rule:nonzero;stroke:#6c007f;stroke-width:3;stroke-linecap:butt;stroke-linejoin:miter;stroke-miterlimit:10;stroke-dasharray:none;stroke-opacity:1"
             d="m 0,0 c 4.679,8.195 6.62,16.474 -2.081,21.443 -8.684,4.952 -14.824,-0.937 -19.504,-9.132" /></g><g
           transform="translate(450.4946,455.7275)"
           id="g150"><path
             id="path152"
             style="fill:#fdff3f;fill-opacity:1;fill-rule:nonzero;stroke:#6c007f;stroke-width:3;stroke-linecap:butt;stroke-linejoin:miter;stroke-miterlimit:10;stroke-dasharray:none;stroke-opacity:1"
             d="m 0,0 c 8.176,4.726 14.046,10.876 9.039,19.559 -5.008,8.664 -13.277,6.676 -21.453,1.969" /></g><g
           transform="translate(390.6177,395.4346)"
           id="g154"><path
             id="path156"
             style="fill:#fdff3f;fill-opacity:1;fill-rule:nonzero;stroke:#6c007f;stroke-width:3;stroke-linecap:butt;stroke-linejoin:miter;stroke-miterlimit:10;stroke-dasharray:none;stroke-opacity:1"
             d="m 0,0 c 0,-9.442 2.42,-17.6 12.434,-17.6 9.995,0 12.413,8.158 12.413,17.6" /></g><g
           transform="translate(354.9888,454.5552)"
           id="g158"><path
             id="path160"
             style="fill:#fdff3f;fill-opacity:1;fill-rule:nonzero;stroke:#6c007f;stroke-width:3;stroke-linecap:butt;stroke-linejoin:miter;stroke-miterlimit:10;stroke-dasharray:none;stroke-opacity:1"
             d="m 0,0 c -9.451,0 -17.608,-2.418 -17.608,-12.432 0,-9.996 8.157,-12.417 17.608,-12.417" /></g><g
           transform="translate(368.8657,407.0615)"
           id="g162"><path
             id="path164"
             style="fill:#fdff3f;fill-opacity:1;fill-rule:nonzero;stroke:#6c007f;stroke-width:3;stroke-linecap:butt;stroke-linejoin:miter;stroke-miterlimit:10;stroke-dasharray:none;stroke-opacity:1"
             d="m 0,0 c -4.679,-8.196 -6.62,-16.475 2.081,-21.444 8.683,-4.952 14.823,0.937 19.502,9.132" /></g><g
           transform="translate(355.4194,428.9189)"
           id="g166"><path
             id="path168"
             style="fill:#fdff3f;fill-opacity:1;fill-rule:nonzero;stroke:#6c007f;stroke-width:3;stroke-linecap:butt;stroke-linejoin:miter;stroke-miterlimit:10;stroke-dasharray:none;stroke-opacity:1"
             d="m 0,0 c -8.176,-4.728 -14.045,-10.878 -9.038,-19.562 5.008,-8.662 13.276,-6.674 21.453,-1.967" /></g><g
           transform="translate(437.1802,407.7646)"
           id="g170"><path
             id="path172"
             style="fill:#fdff3f;fill-opacity:1;fill-rule:nonzero;stroke:#6c007f;stroke-width:3;stroke-linecap:butt;stroke-linejoin:miter;stroke-miterlimit:10;stroke-dasharray:none;stroke-opacity:1"
             d="m 0,0 c 4.68,-8.195 6.62,-16.475 -2.081,-21.444 -8.683,-4.951 -14.823,0.937 -19.503,9.131" /></g><g
           transform="translate(450.6265,429.6221)"
           id="g174"><path
             id="path176"
             style="fill:#fdff3f;fill-opacity:1;fill-rule:nonzero;stroke:#6c007f;stroke-width:3;stroke-linecap:butt;stroke-linejoin:miter;stroke-miterlimit:10;stroke-dasharray:none;stroke-opacity:1"
             d="M 0,0 C 8.176,-4.728 14.045,-10.879 9.038,-19.561 4.03,-28.225 -4.238,-26.237 -12.415,-21.529" /></g><g
           transform="translate(368.8657,477.6587)"
           id="g178"><path
             id="path180"
             style="fill:#fdff3f;fill-opacity:1;fill-rule:nonzero;stroke:#6c007f;stroke-width:3;stroke-linecap:butt;stroke-linejoin:miter;stroke-miterlimit:10;stroke-dasharray:none;stroke-opacity:1"
             d="m 0,0 c -4.679,8.194 -6.62,16.474 2.081,21.443 8.683,4.951 14.823,-0.938 19.502,-9.132" /></g><g
           transform="translate(355.4194,455.8027)"
           id="g182"><path
             id="path184"
             style="fill:#fdff3f;fill-opacity:1;fill-rule:nonzero;stroke:#6c007f;stroke-width:3;stroke-linecap:butt;stroke-linejoin:miter;stroke-miterlimit:10;stroke-dasharray:none;stroke-opacity:1"
             d="m 0,0 c -8.176,4.726 -14.045,10.876 -9.038,19.559 5.008,8.663 13.276,6.675 21.453,1.969" /></g><g
           transform="translate(450.7944,442.3384)"
           id="g186"><path
             id="left-eye"
             style="fill:#1ffffa;fill-opacity:1;fill-rule:nonzero;stroke:none"
             d="m 0,0 c 0,-26.474 -21.452,-47.925 -47.922,-47.925 -26.469,0 -47.922,21.451 -47.922,47.925 0,26.469 21.453,47.922 47.922,47.922 C -21.452,47.922 0,26.469 0,0" /></g><g
           transform="translate(450.7944,442.3384)"
           id="g190"><path
             id="path192"
             style="fill:none;stroke:#6c007f;stroke-width:3;stroke-linecap:butt;stroke-linejoin:miter;stroke-miterlimit:10;stroke-dasharray:none;stroke-opacity:1"
             d="m 0,0 c 0,-26.474 -21.452,-47.925 -47.922,-47.925 -26.469,0 -47.922,21.451 -47.922,47.925 0,26.469 21.453,47.922 47.922,47.922 C -21.452,47.922 0,26.469 0,0 Z" /></g><g
           transform="translate(231.3022,192.4727)"
           id="g194"><path
             id="path196"
             style="fill:#1ffffa;fill-opacity:1;fill-rule:nonzero;stroke:none"
             d="m 0,0 c 0,-7.18 -5.82,-13 -13,-13 -7.18,0 -13,5.82 -13,13 0,7.18 5.82,13 13,13 C -5.82,13 0,7.18 0,0" /></g><g
           transform="translate(231.3022,192.4727)"
           id="g198"><path
             id="path200"
             style="fill:none;stroke:#6c007f;stroke-width:3;stroke-linecap:butt;stroke-linejoin:miter;stroke-miterlimit:10;stroke-dasharray:none;stroke-opacity:1"
             d="m 0,0 c 0,-7.18 -5.82,-13 -13,-13 -7.18,0 -13,5.82 -13,13 0,7.18 5.82,13 13,13 C -5.82,13 0,7.18 0,0 Z" /></g><g
           transform="translate(205.3057,195.1924)"
           id="g202"><path
             id="path204"
             style="fill:#fdff3f;fill-opacity:1;fill-rule:nonzero;stroke:none"
             d="m 0,0 c 0,-6.74 -5.465,-12.205 -12.205,-12.205 -6.74,0 -12.205,5.465 -12.205,12.205 0,6.74 5.465,12.205 12.205,12.205 C -5.465,12.205 0,6.74 0,0" /></g><g
           transform="translate(205.3057,195.1924)"
           id="g206"><path
             id="path208"
             style="fill:none;stroke:#6c007f;stroke-width:3;stroke-linecap:butt;stroke-linejoin:miter;stroke-miterlimit:10;stroke-dasharray:none;stroke-opacity:1"
             d="m 0,0 c 0,-6.74 -5.465,-12.205 -12.205,-12.205 -6.74,0 -12.205,5.465 -12.205,12.205 0,6.74 5.465,12.205 12.205,12.205 C -5.465,12.205 0,6.74 0,0 Z" /></g><g
           transform="translate(182.9307,204.082)"
           id="g210"><path
             id="path212"
             style="fill:#1ffffa;fill-opacity:1;fill-rule:nonzero;stroke:none"
             d="m 0,0 c 0,-5.928 -4.806,-10.733 -10.733,-10.733 -5.927,0 -10.733,4.805 -10.733,10.733 0,5.927 4.806,10.732 10.733,10.732 C -4.806,10.732 0,5.927 0,0" /></g><g
           transform="translate(182.9307,204.082)"
           id="g214"><path
             id="path216"
             style="fill:none;stroke:#6c007f;stroke-width:3;stroke-linecap:butt;stroke-linejoin:miter;stroke-miterlimit:10;stroke-dasharray:none;stroke-opacity:1"
             d="m 0,0 c 0,-5.928 -4.806,-10.733 -10.733,-10.733 -5.927,0 -10.733,4.805 -10.733,10.733 0,5.927 4.806,10.732 10.733,10.732 C -4.806,10.732 0,5.927 0,0 Z" /></g><g
           transform="translate(389.6128,192.4727)"
           id="g218"><path
             id="path220"
             style="fill:#1ffffa;fill-opacity:1;fill-rule:nonzero;stroke:none"
             d="m 0,0 c 0,-7.18 5.823,-13 13.007,-13 7.182,0 13.006,5.82 13.006,13 0,7.18 -5.824,13 -13.006,13 C 5.823,13 0,7.18 0,0" /></g><g
           transform="translate(389.6128,192.4727)"
           id="g222"><path
             id="path224"
             style="fill:none;stroke:#6c007f;stroke-width:3;stroke-linecap:butt;stroke-linejoin:miter;stroke-miterlimit:10;stroke-dasharray:none;stroke-opacity:1"
             d="m 0,0 c 0,-7.18 5.823,-13 13.007,-13 7.182,0 13.006,5.82 13.006,13 0,7.18 -5.824,13 -13.006,13 C 5.823,13 0,7.18 0,0 Z" /></g><g
           transform="translate(415.6226,195.1924)"
           id="g226"><path
             id="path228"
             style="fill:#fdff3f;fill-opacity:1;fill-rule:nonzero;stroke:none"
             d="m 0,0 c 0,-6.74 5.467,-12.205 12.211,-12.205 6.743,0 12.211,5.465 12.211,12.205 0,6.74 -5.468,12.205 -12.211,12.205 C 5.467,12.205 0,6.74 0,0" /></g><g
           transform="translate(415.6226,195.1924)"
           id="g230"><path
             id="path232"
             style="fill:none;stroke:#6c007f;stroke-width:3;stroke-linecap:butt;stroke-linejoin:miter;stroke-miterlimit:10;stroke-dasharray:none;stroke-opacity:1"
             d="m 0,0 c 0,-6.74 5.467,-12.205 12.211,-12.205 6.743,0 12.211,5.465 12.211,12.205 0,6.74 -5.468,12.205 -12.211,12.205 C 5.467,12.205 0,6.74 0,0 Z" /></g><g
           transform="translate(438.0083,204.082)"
           id="g234"><path
             id="path236"
             style="fill:#1ffffa;fill-opacity:1;fill-rule:nonzero;stroke:none"
             d="m 0,0 c 0,-5.928 4.809,-10.733 10.738,-10.733 5.93,0 10.739,4.805 10.739,10.733 0,5.927 -4.809,10.732 -10.739,10.732 C 4.809,10.732 0,5.927 0,0" /></g><g
           transform="translate(438.0083,204.082)"
           id="g238"><path
             id="path240"
             style="fill:none;stroke:#6c007f;stroke-width:3;stroke-linecap:butt;stroke-linejoin:miter;stroke-miterlimit:10;stroke-dasharray:none;stroke-opacity:1"
             d="m 0,0 c 0,-5.928 4.809,-10.733 10.738,-10.733 5.93,0 10.739,4.805 10.739,10.733 0,5.927 -4.809,10.732 -10.739,10.732 C 4.809,10.732 0,5.927 0,0 Z" /></g></g></g><g
       id="g242"><g
         clip-path="url(#clipPath246)"
         id="g244"><g
           transform="translate(245.9175,442.8735)"
           id="g258"><path
             id="right-pupil"
             style="fill:#fdff3f;fill-opacity:1;fill-rule:nonzero;stroke:none"
             d="m 0,0 c 0,-15.255 -12.365,-27.622 -27.617,-27.622 -15.253,0 -27.617,12.367 -27.617,27.622 0,15.252 12.364,27.617 27.617,27.617 C -12.365,27.617 0,15.252 0,0" /></g><g
           transform="translate(430.4897,442.8735)"
           id="g262"><path
             id="left-pupil"
             style="fill:#fdff3f;fill-opacity:1;fill-rule:nonzero;stroke:none"
             d="m 0,0 c 0,-15.255 -12.365,-27.622 -27.617,-27.622 -15.252,0 -27.617,12.367 -27.617,27.622 0,15.252 12.365,27.617 27.617,27.617 C -12.365,27.617 0,15.252 0,0" /></g></g></g><g
       id="g266"><g
         clip-path="url(#clipPath270)"
         id="mouth"><g
           transform="translate(330.7456,374.5156)"
           id="g274"><path
             id="path276"
             style="fill:none;stroke:#6c007f;stroke-width:3;stroke-linecap:butt;stroke-linejoin:miter;stroke-miterlimit:10;stroke-dasharray:none;stroke-opacity:1"
             d="M 0,0 C -0.105,-7.107 -7.688,-11.156 -19.304,-11.164 -30.328,-11.173 -37.759,-7.107 -37.865,0" /></g></g></g></g></svg>